<svg data-v-423bf9ae="" xmlns="http://www.w3.org/2000/svg" viewBox="0 0 514 90" class="iconLeft"><!----><!----><!----><g data-v-423bf9ae="" id="ceffc24d-41ad-47d0-af29-4c6f763ae544" fill="black" transform="matrix(4.1039674680923515,0,0,4.1039674680923515,97.78483481507206,3.9603267991635107)"><path d="M6.89 13.64L1.41 13.64L1.41 3.63L3.10 3.63L3.10 12.44L7.12 12.44L6.89 13.64ZM13.02 12.58L13.02 12.58L13.02 12.58Q12.84 12.73 12.59 12.94L12.59 12.94L12.59 12.94Q12.34 13.15 12.03 13.33L12.03 13.33L12.03 13.33Q11.73 13.52 11.37 13.65L11.37 13.65L11.37 13.65Q11.01 13.78 10.62 13.78L10.62 13.78L10.62 13.78Q10.21 13.78 9.87 13.63L9.87 13.63L9.87 13.63Q9.52 13.49 9.27 13.22L9.27 13.22L9.27 13.22Q9.01 12.96 8.86 12.60L8.86 12.60L8.86 12.60Q8.72 12.23 8.72 11.79L8.72 11.79L8.72 11.79Q8.72 11.32 8.90 10.88L8.90 10.88L8.90 10.88Q9.09 10.43 9.53 10.08L9.53 10.08L9.53 10.08Q9.97 9.73 10.70 9.52L10.70 9.52L10.70 9.52Q11.42 9.30 12.49 9.30L12.49 9.30L12.99 9.30L12.99 8.74L12.99 8.74Q12.99 8.44 12.89 8.20L12.89 8.20L12.89 8.20Q12.78 7.96 12.60 7.79L12.60 7.79L12.60 7.79Q12.41 7.62 12.16 7.53L12.16 7.53L12.16 7.53Q11.90 7.44 11.59 7.44L11.59 7.44L11.59 7.44Q11.34 7.44 11.06 7.50L11.06 7.50L11.06 7.50Q10.78 7.56 10.51 7.66L10.51 7.66L10.51 7.66Q10.23 7.77 9.97 7.91L9.97 7.91L9.97 7.91Q9.71 8.05 9.51 8.21L9.51 8.21L9.39 8.14L9.07 6.99L9.07 6.99Q9.90 6.56 10.61 6.41L10.61 6.41L10.61 6.41Q11.32 6.26 11.94 6.26L11.94 6.26L11.94 6.26Q12.58 6.26 13.09 6.39L13.09 6.39L13.09 6.39Q13.59 6.52 13.94 6.79L13.94 6.79L13.94 6.79Q14.29 7.06 14.47 7.48L14.47 7.48L14.47 7.48Q14.65 7.89 14.65 8.46L14.65 8.46L14.65 11.81L14.65 11.81Q14.65 11.91 14.67 12.03L14.67 12.03L14.67 12.03Q14.68 12.15 14.73 12.26L14.73 12.26L14.73 12.26Q14.79 12.37 14.89 12.45L14.89 12.45L14.89 12.45Q14.98 12.52 15.15 12.52L15.15 12.52L15.15 12.52Q15.24 12.52 15.38 12.50L15.38 12.50L15.38 12.50Q15.52 12.47 15.65 12.41L15.65 12.41L15.65 13.23L15.65 13.23Q15.29 13.48 14.92 13.63L14.92 13.63L14.92 13.63Q14.55 13.78 14.21 13.78L14.21 13.78L14.21 13.78Q13.93 13.78 13.73 13.68L13.73 13.68L13.73 13.68Q13.54 13.58 13.40 13.41L13.40 13.41L13.40 13.41Q13.26 13.24 13.17 13.03L13.17 13.03L13.17 13.03Q13.08 12.81 13.02 12.58ZM12.99 11.70L12.99 10.11L12.56 10.11L12.56 10.11Q11.85 10.11 11.41 10.21L11.41 10.21L11.41 10.21Q10.98 10.31 10.74 10.48L10.74 10.48L10.74 10.48Q10.50 10.66 10.42 10.89L10.42 10.89L10.42 10.89Q10.34 11.12 10.34 11.38L10.34 11.38L10.34 11.38Q10.34 11.66 10.42 11.87L10.42 11.87L10.42 11.87Q10.51 12.09 10.65 12.23L10.65 12.23L10.65 12.23Q10.79 12.37 10.98 12.45L10.98 12.45L10.98 12.45Q11.17 12.52 11.39 12.52L11.39 12.52L11.39 12.52Q11.55 12.52 11.73 12.49L11.73 12.49L11.73 12.49Q11.91 12.45 12.10 12.35L12.10 12.35L12.10 12.35Q12.30 12.26 12.52 12.10L12.52 12.10L12.52 12.10Q12.74 11.94 12.99 11.70L12.99 11.70ZM17.13 11.23L17.13 6.40L18.79 6.40L18.79 10.97L18.79 10.97Q18.79 11.32 18.88 11.60L18.88 11.60L18.88 11.60Q18.98 11.89 19.15 12.09L19.15 12.09L19.15 12.09Q19.32 12.30 19.56 12.41L19.56 12.41L19.56 12.41Q19.80 12.52 20.08 12.52L20.08 12.52L20.08 12.52Q20.33 12.52 20.57 12.44L20.57 12.44L20.57 12.44Q20.80 12.36 21.02 12.23L21.02 12.23L21.02 12.23Q21.24 12.09 21.44 11.92L21.44 11.92L21.44 11.92Q21.64 11.74 21.81 11.55L21.81 11.55L21.81 6.40L23.47 6.40L23.47 13.64L22.13 13.64L21.88 12.42L21.88 12.42Q21.64 12.65 21.35 12.89L21.35 12.89L21.35 12.89Q21.06 13.13 20.74 13.33L20.74 13.33L20.74 13.33Q20.42 13.53 20.06 13.65L20.06 13.65L20.06 13.65Q19.70 13.78 19.31 13.78L19.31 13.78L19.31 13.78Q18.87 13.78 18.47 13.60L18.47 13.60L18.47 13.60Q18.07 13.43 17.78 13.10L17.78 13.10L17.78 13.10Q17.48 12.77 17.31 12.30L17.31 12.30L17.31 12.30Q17.13 11.83 17.13 11.23L17.13 11.23ZM25.75 13.64L25.75 6.40L27.09 6.40L27.32 7.64L27.32 7.64Q27.56 7.42 27.86 7.17L27.86 7.17L27.86 7.17Q28.16 6.93 28.52 6.73L28.52 6.73L28.52 6.73Q28.88 6.53 29.27 6.40L29.27 6.40L29.27 6.40Q29.66 6.26 30.08 6.26L30.08 6.26L30.08 6.26Q30.58 6.26 30.99 6.45L30.99 6.45L30.99 6.45Q31.40 6.64 31.68 6.98L31.68 6.98L31.68 6.98Q31.97 7.31 32.13 7.79L32.13 7.79L32.13 7.79Q32.29 8.26 32.29 8.82L32.29 8.82L32.29 13.64L30.63 13.64L30.63 9.02L30.63 9.02Q30.63 8.65 30.52 8.37L30.52 8.37L30.52 8.37Q30.42 8.09 30.24 7.90L30.24 7.90L30.24 7.90Q30.06 7.72 29.81 7.62L29.81 7.62L29.81 7.62Q29.56 7.53 29.27 7.53L29.27 7.53L29.27 7.53Q28.77 7.53 28.31 7.79L28.31 7.79L28.31 7.79Q27.86 8.05 27.41 8.47L27.41 8.47L27.41 13.64L25.75 13.64ZM39.54 11.56L39.54 7.75L39.54 7.75Q39.09 7.55 38.74 7.50L38.74 7.50L38.74 7.50Q38.39 7.44 38.17 7.44L38.17 7.44L38.17 7.44Q37.61 7.44 37.18 7.64L37.18 7.64L37.18 7.64Q36.74 7.84 36.45 8.19L36.45 8.19L36.45 8.19Q36.16 8.54 36.00 9.02L36.00 9.02L36.00 9.02Q35.85 9.50 35.85 10.07L35.85 10.07L35.85 10.07Q35.85 10.58 35.98 11.03L35.98 11.03L35.98 11.03Q36.11 11.47 36.35 11.81L36.35 11.81L36.35 11.81Q36.59 12.14 36.92 12.33L36.92 12.33L36.92 12.33Q37.26 12.52 37.68 12.52L37.68 12.52L37.68 12.52Q38.17 12.52 38.64 12.27L38.64 12.27L38.64 12.27Q39.11 12.01 39.54 11.56L39.54 11.56ZM39.54 6.43L39.54 2.69L41.20 2.69L41.20 13.64L39.85 13.64L39.62 12.43L39.62 12.43Q39.38 12.65 39.10 12.89L39.10 12.89L39.10 12.89Q38.81 13.13 38.48 13.32L38.48 13.32L38.48 13.32Q38.14 13.52 37.76 13.65L37.76 13.65L37.76 13.65Q37.37 13.78 36.93 13.78L36.93 13.78L36.93 13.78Q36.28 13.78 35.76 13.49L35.76 13.49L35.76 13.49Q35.24 13.20 34.87 12.72L34.87 12.72L34.87 12.72Q34.51 12.24 34.32 11.61L34.32 11.61L34.32 11.61Q34.13 10.99 34.13 10.33L34.13 10.33L34.13 10.33Q34.13 9.45 34.44 8.71L34.44 8.71L34.44 8.71Q34.76 7.96 35.31 7.42L35.31 7.42L35.31 7.42Q35.87 6.88 36.61 6.57L36.61 6.57L36.61 6.57Q37.36 6.26 38.21 6.26L38.21 6.26L38.21 6.26Q38.60 6.26 38.95 6.32L38.95 6.32L38.95 6.32Q39.29 6.37 39.54 6.43L39.54 6.43ZM43.48 13.64L43.48 6.40L44.82 6.40L45.06 8.56L45.06 8.56Q45.15 8.38 45.25 8.19L45.25 8.19L45.25 8.19Q45.36 8.00 45.46 7.83L45.46 7.83L45.46 7.83Q45.56 7.66 45.65 7.51L45.65 7.51L45.65 7.51Q45.74 7.37 45.80 7.27L45.80 7.27L45.80 7.27Q45.94 7.06 46.13 6.87L46.13 6.87L46.13 6.87Q46.31 6.69 46.52 6.55L46.52 6.55L46.52 6.55Q46.73 6.42 46.98 6.34L46.98 6.34L46.98 6.34Q47.22 6.26 47.51 6.26L47.51 6.26L47.51 6.26Q47.71 6.26 47.91 6.31L47.91 6.31L47.91 6.31Q48.10 6.36 48.24 6.46L48.24 6.46L48.06 7.98L48.06 7.98Q47.94 7.95 47.78 7.94L47.78 7.94L47.78 7.94Q47.61 7.93 47.48 7.93L47.48 7.93L47.48 7.93Q47.04 7.93 46.70 8.06L46.70 8.06L46.70 8.06Q46.36 8.18 46.08 8.40L46.08 8.40L46.08 8.40Q45.81 8.63 45.58 8.93L45.58 8.93L45.58 8.93Q45.35 9.23 45.14 9.58L45.14 9.58L45.14 13.64L43.48 13.64ZM51.60 13.64L49.01 6.40L50.84 6.40L52.25 11.04L52.56 12.40L52.70 12.40L53.01 11.04L54.43 6.40L55.99 6.40L52.10 17.31L50.57 17.31L52.10 13.64L51.60 13.64ZM65.97 4.36L67.83 4.36L69.62 10.99L69.93 12.40L70.07 12.40L70.37 10.99L72.15 3.63L73.68 3.63L70.93 13.64L68.92 13.64L67.22 7.68L66.86 6.02L66.73 6.02L66.37 7.68L64.67 13.64L62.66 13.64L59.88 3.63L61.67 3.63L63.46 10.99L63.73 12.40L63.86 12.40L64.18 10.99L65.97 4.36ZM78.80 12.58L78.80 12.58L78.80 12.58Q78.62 12.73 78.37 12.94L78.37 12.94L78.37 12.94Q78.12 13.15 77.82 13.33L77.82 13.33L77.82 13.33Q77.51 13.52 77.15 13.65L77.15 13.65L77.15 13.65Q76.79 13.78 76.40 13.78L76.40 13.78L76.40 13.78Q76.00 13.78 75.65 13.63L75.65 13.63L75.65 13.63Q75.30 13.49 75.05 13.22L75.05 13.22L75.05 13.22Q74.79 12.96 74.65 12.60L74.65 12.60L74.65 12.60Q74.50 12.23 74.50 11.79L74.50 11.79L74.50 11.79Q74.50 11.32 74.69 10.88L74.69 10.88L74.69 10.88Q74.87 10.43 75.31 10.08L75.31 10.08L75.31 10.08Q75.76 9.73 76.48 9.52L76.48 9.52L76.48 9.52Q77.21 9.30 78.27 9.30L78.27 9.30L78.77 9.30L78.77 8.74L78.77 8.74Q78.77 8.44 78.67 8.20L78.67 8.20L78.67 8.20Q78.57 7.96 78.38 7.79L78.38 7.79L78.38 7.79Q78.20 7.62 77.94 7.53L77.94 7.53L77.94 7.53Q77.68 7.44 77.37 7.44L77.37 7.44L77.37 7.44Q77.12 7.44 76.84 7.50L76.84 7.50L76.84 7.50Q76.56 7.56 76.29 7.66L76.29 7.66L76.29 7.66Q76.02 7.77 75.76 7.91L75.76 7.91L75.76 7.91Q75.50 8.05 75.29 8.21L75.29 8.21L75.17 8.14L74.85 6.99L74.85 6.99Q75.68 6.56 76.39 6.41L76.39 6.41L76.39 6.41Q77.10 6.26 77.72 6.26L77.72 6.26L77.72 6.26Q78.37 6.26 78.87 6.39L78.87 6.39L78.87 6.39Q79.37 6.52 79.72 6.79L79.72 6.79L79.72 6.79Q80.07 7.06 80.25 7.48L80.25 7.48L80.25 7.48Q80.43 7.89 80.43 8.46L80.43 8.46L80.43 11.81L80.43 11.81Q80.43 11.91 80.45 12.03L80.45 12.03L80.45 12.03Q80.47 12.15 80.52 12.26L80.52 12.26L80.52 12.26Q80.57 12.37 80.67 12.45L80.67 12.45L80.67 12.45Q80.77 12.52 80.93 12.52L80.93 12.52L80.93 12.52Q81.03 12.52 81.16 12.50L81.16 12.50L81.16 12.50Q81.30 12.47 81.44 12.41L81.44 12.41L81.44 13.23L81.44 13.23Q81.07 13.48 80.70 13.63L80.70 13.63L80.70 13.63Q80.34 13.78 79.99 13.78L79.99 13.78L79.99 13.78Q79.71 13.78 79.52 13.68L79.52 13.68L79.52 13.68Q79.32 13.58 79.18 13.41L79.18 13.41L79.18 13.41Q79.04 13.24 78.95 13.03L78.95 13.03L78.95 13.03Q78.86 12.81 78.80 12.58ZM78.77 11.70L78.77 10.11L78.34 10.11L78.34 10.11Q77.63 10.11 77.19 10.21L77.19 10.21L77.19 10.21Q76.76 10.31 76.52 10.48L76.52 10.48L76.52 10.48Q76.28 10.66 76.20 10.89L76.20 10.89L76.20 10.89Q76.13 11.12 76.13 11.38L76.13 11.38L76.13 11.38Q76.13 11.66 76.21 11.87L76.21 11.87L76.21 11.87Q76.29 12.09 76.43 12.23L76.43 12.23L76.43 12.23Q76.57 12.37 76.76 12.45L76.76 12.45L76.76 12.45Q76.95 12.52 77.17 12.52L77.17 12.52L77.17 12.52Q77.33 12.52 77.51 12.49L77.51 12.49L77.51 12.49Q77.69 12.45 77.89 12.35L77.89 12.35L77.89 12.35Q78.08 12.26 78.30 12.10L78.30 12.10L78.30 12.10Q78.52 11.94 78.77 11.70L78.77 11.70ZM82.91 13.64L82.91 2.69L84.57 2.69L84.57 13.64L82.91 13.64ZM90.76 12.58L90.76 12.58L90.76 12.58Q90.58 12.73 90.33 12.94L90.33 12.94L90.33 12.94Q90.08 13.15 89.78 13.33L89.78 13.33L89.78 13.33Q89.48 13.52 89.12 13.65L89.12 13.65L89.12 13.65Q88.76 13.78 88.36 13.78L88.36 13.78L88.36 13.78Q87.96 13.78 87.61 13.63L87.61 13.63L87.61 13.63Q87.27 13.49 87.01 13.22L87.01 13.22L87.01 13.22Q86.75 12.96 86.61 12.60L86.61 12.60L86.61 12.60Q86.46 12.23 86.46 11.79L86.46 11.79L86.46 11.79Q86.46 11.32 86.65 10.88L86.65 10.88L86.65 10.88Q86.84 10.43 87.28 10.08L87.28 10.08L87.28 10.08Q87.72 9.73 88.44 9.52L88.44 9.52L88.44 9.52Q89.17 9.30 90.23 9.30L90.23 9.30L90.73 9.30L90.73 8.74L90.73 8.74Q90.73 8.44 90.63 8.20L90.63 8.20L90.63 8.20Q90.53 7.96 90.34 7.79L90.34 7.79L90.34 7.79Q90.16 7.62 89.90 7.53L89.90 7.53L89.90 7.53Q89.65 7.44 89.33 7.44L89.33 7.44L89.33 7.44Q89.09 7.44 88.81 7.50L88.81 7.50L88.81 7.50Q88.53 7.56 88.25 7.66L88.25 7.66L88.25 7.66Q87.98 7.77 87.72 7.91L87.72 7.91L87.72 7.91Q87.46 8.05 87.25 8.21L87.25 8.21L87.13 8.14L86.82 6.99L86.82 6.99Q87.64 6.56 88.35 6.41L88.35 6.41L88.35 6.41Q89.07 6.26 89.69 6.26L89.69 6.26L89.69 6.26Q90.33 6.26 90.83 6.39L90.83 6.39L90.83 6.39Q91.33 6.52 91.68 6.79L91.68 6.79L91.68 6.79Q92.03 7.06 92.21 7.48L92.21 7.48L92.21 7.48Q92.39 7.89 92.39 8.46L92.39 8.46L92.39 11.81L92.39 11.81Q92.39 11.91 92.41 12.03L92.41 12.03L92.41 12.03Q92.43 12.15 92.48 12.26L92.48 12.26L92.48 12.26Q92.53 12.37 92.63 12.45L92.63 12.45L92.63 12.45Q92.73 12.52 92.89 12.52L92.89 12.52L92.89 12.52Q92.99 12.52 93.13 12.50L93.13 12.50L93.13 12.50Q93.26 12.47 93.40 12.41L93.40 12.41L93.40 13.23L93.40 13.23Q93.03 13.48 92.66 13.63L92.66 13.63L92.66 13.63Q92.30 13.78 91.95 13.78L91.95 13.78L91.95 13.78Q91.68 13.78 91.48 13.68L91.48 13.68L91.48 13.68Q91.28 13.58 91.14 13.41L91.14 13.41L91.14 13.41Q91.01 13.24 90.91 13.03L90.91 13.03L90.91 13.03Q90.82 12.81 90.76 12.58ZM90.73 11.70L90.73 10.11L90.30 10.11L90.30 10.11Q89.59 10.11 89.16 10.21L89.16 10.21L89.16 10.21Q88.72 10.31 88.48 10.48L88.48 10.48L88.48 10.48Q88.25 10.66 88.17 10.89L88.17 10.89L88.17 10.89Q88.09 11.12 88.09 11.38L88.09 11.38L88.09 11.38Q88.09 11.66 88.17 11.87L88.17 11.87L88.17 11.87Q88.25 12.09 88.39 12.23L88.39 12.23L88.39 12.23Q88.53 12.37 88.72 12.45L88.72 12.45L88.72 12.45Q88.92 12.52 89.13 12.52L89.13 12.52L89.13 12.52Q89.30 12.52 89.48 12.49L89.48 12.49L89.48 12.49Q89.65 12.45 89.85 12.35L89.85 12.35L89.85 12.35Q90.04 12.26 90.26 12.10L90.26 12.10L90.26 12.10Q90.48 11.94 90.73 11.70L90.73 11.70ZM94.88 13.64L94.88 2.69L96.53 2.69L96.53 7.57L96.53 7.57Q96.78 7.34 97.09 7.11L97.09 7.11L97.09 7.11Q97.39 6.88 97.73 6.69L97.73 6.69L97.73 6.69Q98.07 6.50 98.44 6.38L98.44 6.38L98.44 6.38Q98.82 6.26 99.22 6.26L99.22 6.26L99.22 6.26Q99.72 6.26 100.12 6.45L100.12 6.45L100.12 6.45Q100.52 6.63 100.81 6.97L100.81 6.97L100.81 6.97Q101.10 7.30 101.25 7.77L101.25 7.77L101.25 7.77Q101.41 8.24 101.41 8.82L101.41 8.82L101.41 13.64L99.75 13.64L99.75 9.00L99.75 9.00Q99.75 8.63 99.65 8.36L99.65 8.36L99.65 8.36Q99.54 8.08 99.37 7.90L99.37 7.90L99.37 7.90Q99.19 7.71 98.94 7.62L98.94 7.62L98.94 7.62Q98.69 7.53 98.40 7.53L98.40 7.53L98.40 7.53Q97.90 7.53 97.45 7.79L97.45 7.79L97.45 7.79Q97.00 8.05 96.53 8.47L96.53 8.47L96.53 13.64L94.88 13.64Z"></path></g><!----><g data-v-423bf9ae="" id="c036b4a4-9442-41b8-bde1-aa96360eb253" transform="matrix(1.2857142857142858,0,0,1.2857142857142858,-21.642857142857146,-20.57142857142857)" stroke="none" fill="black"><path d="M17 86h65V31H17v55zm32.501-47.412c10.643 0 19.271 8.629 19.271 19.271 0 10.643-8.629 19.271-19.271 19.271S30.23 68.501 30.23 57.859c-.001-10.642 8.628-19.271 19.271-19.271z"></path><path d="M58.548 71.083c7.257-5.424 7.257-13.461 7.257-13.461s-3.119 3.415-8.012 0c0 0-3.339 4.009-8.39.236 0 0-3.469 3.476-7.917 0 0 0-4.001 3.327-8.152-.236 0 0-.352 5.277 3.872 10.645 4.224 5.368 15.084 7.493 21.342 2.816zM71.512 16H27.488C21.695 16 17 22 17 29h65c0-7-4.693-13-10.488-13zM27.461 26.144a3.48 3.48 0 1 1 .001-6.96 3.48 3.48 0 0 1-.001 6.96zM72.102 26H36.809c-1.923 0-3.48-1.577-3.48-3.5s1.558-3.5 3.48-3.5h35.293c1.921 0 3.479 1.577 3.479 3.5S74.022 26 72.102 26z"></path></g><!----></svg>